<svg xmlns="http://www.w3.org/2000/svg" xmlns:xlink="http://www.w3.org/1999/xlink" width="860" height="601.04"><rect width="860" height="601.04" rx="5" ry="5" class="a"/><svg y="0%" x="0%"><circle cx="20" cy="20" r="6" fill="#ff5f58"/><circle cx="40" cy="20" r="6" fill="#ffbd2e"/><circle cx="60" cy="20" r="6" fill="#18c132"/></svg><svg height="521.04" viewBox="0 0 80 52.104" width="800" x="25" xmlns="http://www.w3.org/2000/svg" xmlns:xlink="http://www.w3.org/1999/xlink" y="60"><style>@keyframes k{0%{transform:translateX(0)}29.4%{transform:translateX(-80px)}29.7%{transform:translateX(-160px)}30.8%{transform:translateX(-240px)}31%{transform:translateX(-400px)}31.1%{transform:translateX(-1280px)}31.2%{transform:translateX(-1680px)}32.2%{transform:translateX(-1760px)}33.6%{transform:translateX(-1920px)}33.7%{transform:translateX(-2000px)}35.3%{transform:translateX(-2080px)}37.1%{transform:translateX(-2320px)}37.7%{transform:translateX(-2400px)}37.9%{transform:translateX(-2720px)}99.9%{transform:translateX(-2800px)}to{transform:translateX(-3040px)}}.a{fill:#282d35}.f,.g,.h{white-space:pre}.f{fill:#a8cc8c;font-weight:700}.g,.h{fill:#b9c0cb}.h{fill:#a8cc8c}</style><g font-family="Monaco,Consolas,Menlo,'Bitstream Vera Sans Mono','Powerline Symbols',monospace" font-size="1.67"><defs><symbol id="1"><text x="4.008" y="1.67" class="f">Finished</text><text x="13.026" y="1.67" class="g">`test`</text><text x="20.04" y="1.67" class="g">profile</text><text x="28.056" y="1.67" class="g">[unoptimized</text><text x="41.082" y="1.67" class="g">+</text><text x="43.086" y="1.67" class="g">debuginfo]</text><text x="54.108" y="1.67" class="g">target(s)</text><text x="64.128" y="1.67" class="g">in</text><text x="67.134" y="1.67" class="g">0.17s</text></symbol><symbol id="2"><text x="5.01" y="1.67" class="f">Running</text><text x="13.026" y="1.67" class="g">unittests</text><text x="23.046" y="1.67" class="g">src/lib.rs</text><text x="34.068" y="1.67" class="g">(target/debug/deps/raw-def0bda2350c9955)</text></symbol><symbol id="3"><text y="1.67" class="g">running</text><text x="8.016" y="1.67" class="g">16</text><text x="11.022" y="1.67" class="g">tests</text></symbol><symbol id="4"><text y="1.67" class="g">test</text><text x="5.01" y="1.67" class="g">config::tests::parse_workers_rejects_zero</text><text x="47.094" y="1.67" class="g">...</text><text x="51.102" y="1.67" class="h">ok</text></symbol><symbol id="5"><text y="1.67" class="g">test</text><text x="5.01" y="1.67" class="g">request::tests::parse_query_pairs</text><text x="39.078" y="1.67" class="g">...</text><text x="43.086" y="1.67" class="h">ok</text></symbol><symbol id="6"><text y="1.67" class="g">test</text><text x="5.01" y="1.67" class="g">response::tests::html_response_sets_content_type</text><text x="54.108" y="1.67" class="g">...</text><text x="58.116" y="1.67" class="h">ok</text></symbol><symbol id="7"><text y="1.67" class="g">test</text><text x="5.01" y="1.67" class="g">response::tests::json_response_sets_content_type</text><text x="54.108" y="1.67" class="g">...</text><text x="58.116" y="1.67" class="h">ok</text></symbol><symbol id="8"><text y="1.67" class="g">test</text><text x="5.01" y="1.67" class="g">response::tests::text_response_sets_content_type</text><text x="54.108" y="1.67" class="g">...</text><text x="58.116" y="1.67" class="h">ok</text></symbol><symbol id="9"><text y="1.67" class="g">test</text><text x="5.01" y="1.67" class="g">router::tests::match_param_path</text><text x="37.074" y="1.67" class="g">...</text><text x="41.082" y="1.67" class="h">ok</text></symbol><symbol id="10"><text y="1.67" class="g">test</text><text x="5.01" y="1.67" class="g">router::tests::match_static_path</text><text x="38.076" y="1.67" class="g">...</text><text x="42.084" y="1.67" class="h">ok</text></symbol><symbol id="11"><text y="1.67" class="g">test</text><text x="5.01" y="1.67" class="g">router::tests::match_wildcard_path</text><text x="40.08" y="1.67" class="g">...</text><text x="44.088" y="1.67" class="h">ok</text></symbol><symbol id="12"><text y="1.67" class="g">test</text><text x="5.01" y="1.67" class="g">static_files::tests::sanitize_defaults_index</text><text x="50.1" y="1.67" class="g">...</text><text x="54.108" y="1.67" class="h">ok</text></symbol><symbol id="13"><text y="1.67" class="g">test</text><text x="5.01" y="1.67" class="g">static_files::tests::sanitize_rejects_parent</text><text x="50.1" y="1.67" class="g">...</text><text x="54.108" y="1.67" class="h">ok</text></symbol><symbol id="14"><text y="1.67" class="g">test</text><text x="5.01" y="1.67" class="g">static_files::tests::content_type_defaults_binary</text><text x="55.11" y="1.67" class="g">...</text><text x="59.118" y="1.67" class="h">ok</text></symbol><symbol id="15"><text y="1.67" class="g">test</text><text x="5.01" y="1.67" class="g">app::tests::app_registers_put_route</text><text x="41.082" y="1.67" class="g">...</text><text x="45.09" y="1.67" class="h">ok</text></symbol><symbol id="16"><text y="1.67" class="g">test</text><text x="5.01" y="1.67" class="g">app::tests::app_registers_route</text><text x="37.074" y="1.67" class="g">...</text><text x="41.082" y="1.67" class="h">ok</text></symbol><symbol id="17"><text y="1.67" class="g">test</text><text x="5.01" y="1.67" class="g">middleware_builtin::tests::request_id_adds_header</text><text x="55.11" y="1.67" class="g">...</text><text x="59.118" y="1.67" class="h">ok</text></symbol><symbol id="18"><text y="1.67" class="g">test</text><text x="5.01" y="1.67" class="g">request::tests::parse_json_body</text><text x="37.074" y="1.67" class="g">...</text><text x="41.082" y="1.67" class="h">ok</text></symbol><symbol id="19"><text y="1.67" class="g">test</text><text x="5.01" y="1.67" class="g">app::tests::run_returns_error_on_invalid_addr</text><text x="51.102" y="1.67" class="g">...</text><text x="55.11" y="1.67" class="h">ok</text></symbol><symbol id="20"><text y="1.67" class="g">test</text><text x="5.01" y="1.67" class="g">result:</text><text x="13.026" y="1.67" class="h">ok</text><text x="15.03" y="1.67" class="g">.</text><text x="17.034" y="1.67" class="g">16</text><text x="20.04" y="1.67" class="g">passed;</text><text x="28.056" y="1.67" class="g">0</text><text x="30.06" y="1.67" class="g">failed;</text><text x="38.076" y="1.67" class="g">0</text><text x="40.08" y="1.67" class="g">ignored;</text><text x="49.098" y="1.67" class="g">0</text><text x="51.102" y="1.67" class="g">measured;</text><text x="61.122" y="1.67" class="g">0</text><text x="63.126" y="1.67" class="g">filtered</text><text x="72.144" y="1.67" class="g">out;</text><text x="77.154" y="1.67" class="g">fin</text></symbol><symbol id="21"><text y="1.67" class="g">ished</text><text x="6.012" y="1.67" class="g">in</text><text x="9.018" y="1.67" class="g">0.00s</text></symbol><symbol id="22"><text x="5.01" y="1.67" class="f">Running</text><text x="13.026" y="1.67" class="g">tests/server.rs</text><text x="29.058" y="1.67" class="g">(target/debug/deps/server-bdb8a0d576aa1146)</text></symbol><symbol id="23"><text y="1.67" class="g">running</text><text x="8.016" y="1.67" class="g">1</text><text x="10.02" y="1.67" class="g">test</text></symbol><symbol id="24"><text y="1.67" class="g">test</text><text x="5.01" y="1.67" class="g">serves_basic_route</text><text x="24.048" y="1.67" class="g">...</text><text x="28.056" y="1.67" class="h">ok</text></symbol><symbol id="25"><text y="1.67" class="g">test</text><text x="5.01" y="1.67" class="g">result:</text><text x="13.026" y="1.67" class="h">ok</text><text x="15.03" y="1.67" class="g">.</text><text x="17.034" y="1.67" class="g">1</text><text x="19.038" y="1.67" class="g">passed;</text><text x="27.054" y="1.67" class="g">0</text><text x="29.058" y="1.67" class="g">failed;</text><text x="37.074" y="1.67" class="g">0</text><text x="39.078" y="1.67" class="g">ignored;</text><text x="48.096" y="1.67" class="g">0</text><text x="50.1" y="1.67" class="g">measured;</text><text x="60.12" y="1.67" class="g">0</text><text x="62.124" y="1.67" class="g">filtered</text><text x="71.142" y="1.67" class="g">out;</text><text x="76.152" y="1.67" class="g">fini</text></symbol><symbol id="26"><text y="1.67" class="g">shed</text><text x="5.01" y="1.67" class="g">in</text><text x="8.016" y="1.67" class="g">0.01s</text></symbol><symbol id="27"><text x="5.01" y="1.67" class="f">Running</text><text x="13.026" y="1.67" class="g">tests/static_files.rs</text><text x="35.07" y="1.67" class="g">(target/debug/deps/static_files-b347a1e20b4c4</text></symbol><symbol id="28"><text y="1.67" class="g">4f8)</text></symbol><symbol id="29"><text y="1.67" class="g">test</text><text x="5.01" y="1.67" class="g">serves_static_file_before_routes</text><text x="38.076" y="1.67" class="g">...</text><text x="42.084" y="1.67" class="h">ok</text></symbol><symbol id="30"><text x="5.01" y="1.67" class="f">Running</text><text x="13.026" y="1.67" class="g">unittests</text><text x="23.046" y="1.67" class="g">src/main.rs</text><text x="35.07" y="1.67" class="g">(target/debug/deps/raw-20b91dc3553f1b50)</text></symbol><symbol id="31"><text y="1.67" class="g">test</text><text x="5.01" y="1.67" class="g">scaffold::tests::scaffold_creates_project_structure</text><text x="57.114" y="1.67" class="g">...</text><text x="61.122" y="1.67" class="h">ok</text></symbol><symbol id="32"><text y="1.67" class="g">shed</text><text x="5.01" y="1.67" class="g">in</text><text x="8.016" y="1.67" class="g">0.00s</text></symbol><symbol id="33"><text x="3.006" y="1.67" class="f">Doc-tests</text><text x="13.026" y="1.67" class="g">raw</text></symbol><symbol id="34"><text y="1.67" class="g">running</text><text x="8.016" y="1.67" class="g">0</text><text x="10.02" y="1.67" class="g">tests</text></symbol><symbol id="a"><path fill="transparent" d="M0 0h80v24H0z"/></symbol><symbol id="b"><path fill="#6f7683" d="M0 0h1.102v2.171H0z"/></symbol></defs><path class="a" d="M0 0h80v52.104H0z"/><g style="animation-duration:.771652s;animation-iteration-count:infinite;animation-name:k;animation-timing-function:steps(1,end)"><svg width="3120"><svg><use xlink:href="#a"/><use xlink:href="#b" x="-.004"/></svg><svg x="80"><use xlink:href="#a"/><use xlink:href="#b" x="-.004" y="2.146"/><use xlink:href="#1"/></svg><svg x="160"><use xlink:href="#a"/><use xlink:href="#b" x="-.004" y="4.317"/><use xlink:href="#1"/><use xlink:href="#2" y="2.171"/></svg><svg x="240"><use xlink:href="#a"/><use xlink:href="#b" x="-.004" y="8.659"/><use xlink:href="#1"/><use xlink:href="#2" y="2.171"/><use xlink:href="#3" y="6.513"/></svg><svg x="320"><use xlink:href="#a"/><use xlink:href="#b" x="-.004" y="10.83"/><use xlink:href="#1"/><use xlink:href="#2" y="2.171"/><use xlink:href="#3" y="6.513"/><use xlink:href="#4" y="8.684"/></svg><svg x="400"><use xlink:href="#a"/><use xlink:href="#b" x="-.004" y="13.001"/><use xlink:href="#1"/><use xlink:href="#2" y="2.171"/><use xlink:href="#3" y="6.513"/><use xlink:href="#4" y="8.684"/><use xlink:href="#5" y="10.855"/></svg><svg x="480"><use xlink:href="#a"/><use xlink:href="#b" x="59.996" y="13.001"/><use xlink:href="#1"/><use xlink:href="#2" y="2.171"/><use xlink:href="#3" y="6.513"/><use xlink:href="#4" y="8.684"/><use xlink:href="#5" y="10.855"/><use xlink:href="#6" y="13.026"/></svg><svg x="560"><use xlink:href="#a"/><use xlink:href="#b" x="-.004" y="15.172"/><use xlink:href="#1"/><use xlink:href="#2" y="2.171"/><use xlink:href="#3" y="6.513"/><use xlink:href="#4" y="8.684"/><use xlink:href="#5" y="10.855"/><use xlink:href="#6" y="13.026"/></svg><svg x="640"><use xlink:href="#a"/><use xlink:href="#b" x="-.004" y="17.343"/><use xlink:href="#1"/><use xlink:href="#2" y="2.171"/><use xlink:href="#3" y="6.513"/><use xlink:href="#4" y="8.684"/><use xlink:href="#5" y="10.855"/><use xlink:href="#6" y="13.026"/><use xlink:href="#7" y="15.197"/></svg><svg x="720"><use xlink:href="#a"/><use xlink:href="#b" x="-.004" y="21.685"/><use xlink:href="#1"/><use xlink:href="#2" y="2.171"/><use xlink:href="#3" y="6.513"/><use xlink:href="#4" y="8.684"/><use xlink:href="#5" y="10.855"/><use xlink:href="#6" y="13.026"/><use xlink:href="#7" y="15.197"/><use xlink:href="#8" y="17.368"/><use xlink:href="#9" y="19.539"/></svg><svg x="800"><use xlink:href="#a"/><use xlink:href="#b" x="-.004" y="23.856"/><use xlink:href="#1"/><use xlink:href="#2" y="2.171"/><use xlink:href="#3" y="6.513"/><use xlink:href="#4" y="8.684"/><use xlink:href="#5" y="10.855"/><use xlink:href="#6" y="13.026"/><use xlink:href="#7" y="15.197"/><use xlink:href="#8" y="17.368"/><use xlink:href="#9" y="19.539"/><use xlink:href="#10" y="21.71"/></svg><svg x="880"><use xlink:href="#a"/><use xlink:href="#b" x="-.004" y="26.027"/><use xlink:href="#1"/><use xlink:href="#2" y="2.171"/><use xlink:href="#3" y="6.513"/><use xlink:href="#4" y="8.684"/><use xlink:href="#5" y="10.855"/><use xlink:href="#6" y="13.026"/><use xlink:href="#7" y="15.197"/><use xlink:href="#8" y="17.368"/><use xlink:href="#9" y="19.539"/><use xlink:href="#10" y="21.71"/><use xlink:href="#11" y="23.881"/></svg><svg x="960"><use xlink:href="#a"/><use xlink:href="#b" x="-.004" y="28.198"/><use xlink:href="#1"/><use xlink:href="#2" y="2.171"/><use xlink:href="#3" y="6.513"/><use xlink:href="#4" y="8.684"/><use xlink:href="#5" y="10.855"/><use xlink:href="#6" y="13.026"/><use xlink:href="#7" y="15.197"/><use xlink:href="#8" y="17.368"/><use xlink:href="#9" y="19.539"/><use xlink:href="#10" y="21.71"/><use xlink:href="#11" y="23.881"/><use xlink:href="#12" y="26.052"/></svg><svg x="1040"><use xlink:href="#a"/><use xlink:href="#b" x="-.004" y="30.369"/><use xlink:href="#1"/><use xlink:href="#2" y="2.171"/><use xlink:href="#3" y="6.513"/><use xlink:href="#4" y="8.684"/><use xlink:href="#5" y="10.855"/><use xlink:href="#6" y="13.026"/><use xlink:href="#7" y="15.197"/><use xlink:href="#8" y="17.368"/><use xlink:href="#9" y="19.539"/><use xlink:href="#10" y="21.71"/><use xlink:href="#11" y="23.881"/><use xlink:href="#12" y="26.052"/><use xlink:href="#13" y="28.223"/></svg><svg x="1120"><use xlink:href="#a"/><use xlink:href="#b" x="-.004" y="32.54"/><use xlink:href="#1"/><use xlink:href="#2" y="2.171"/><use xlink:href="#3" y="6.513"/><use xlink:href="#4" y="8.684"/><use xlink:href="#5" y="10.855"/><use xlink:href="#6" y="13.026"/><use xlink:href="#7" y="15.197"/><use xlink:href="#8" y="17.368"/><use xlink:href="#9" y="19.539"/><use xlink:href="#10" y="21.71"/><use xlink:href="#11" y="23.881"/><use xlink:href="#12" y="26.052"/><use xlink:href="#13" y="28.223"/><use xlink:href="#14" y="30.394"/></svg><svg x="1200"><use xlink:href="#a"/><use xlink:href="#b" x="58.996" y="36.882"/><use xlink:href="#1"/><use xlink:href="#2" y="2.171"/><use xlink:href="#3" y="6.513"/><use xlink:href="#4" y="8.684"/><use xlink:href="#5" y="10.855"/><use xlink:href="#6" y="13.026"/><use xlink:href="#7" y="15.197"/><use xlink:href="#8" y="17.368"/><use xlink:href="#9" y="19.539"/><use xlink:href="#10" y="21.71"/><use xlink:href="#11" y="23.881"/><use xlink:href="#12" y="26.052"/><use xlink:href="#13" y="28.223"/><use xlink:href="#14" y="30.394"/><use xlink:href="#15" y="32.565"/><use xlink:href="#16" y="34.736"/><text y="38.577" class="g">test</text><text x="5.01" y="38.577" class="g">middleware_builtin::tests::request_id_adds_header</text><text x="55.11" y="38.577" class="g">...</text></svg><svg x="1280"><use xlink:href="#a"/><use xlink:href="#b" x="-.004" y="39.053"/><use xlink:href="#1"/><use xlink:href="#2" y="2.171"/><use xlink:href="#3" y="6.513"/><use xlink:href="#4" y="8.684"/><use xlink:href="#5" y="10.855"/><use xlink:href="#6" y="13.026"/><use xlink:href="#7" y="15.197"/><use xlink:href="#8" y="17.368"/><use xlink:href="#9" y="19.539"/><use xlink:href="#10" y="21.71"/><use xlink:href="#11" y="23.881"/><use xlink:href="#12" y="26.052"/><use xlink:href="#13" y="28.223"/><use xlink:href="#14" y="30.394"/><use xlink:href="#15" y="32.565"/><use xlink:href="#16" y="34.736"/><use xlink:href="#17" y="36.907"/></svg><svg x="1360"><use xlink:href="#a"/><use xlink:href="#b" x="-.004" y="41.224"/><use xlink:href="#1"/><use xlink:href="#2" y="2.171"/><use xlink:href="#3" y="6.513"/><use xlink:href="#4" y="8.684"/><use xlink:href="#5" y="10.855"/><use xlink:href="#6" y="13.026"/><use xlink:href="#7" y="15.197"/><use xlink:href="#8" y="17.368"/><use xlink:href="#9" y="19.539"/><use xlink:href="#10" y="21.71"/><use xlink:href="#11" y="23.881"/><use xlink:href="#12" y="26.052"/><use xlink:href="#13" y="28.223"/><use xlink:href="#14" y="30.394"/><use xlink:href="#15" y="32.565"/><use xlink:href="#16" y="34.736"/><use xlink:href="#17" y="36.907"/><use xlink:href="#18" y="39.078"/></svg><svg x="1440"><use xlink:href="#a"/><use xlink:href="#b" x="-.004" y="43.395"/><use xlink:href="#1"/><use xlink:href="#2" y="2.171"/><use xlink:href="#3" y="6.513"/><use xlink:href="#4" y="8.684"/><use xlink:href="#5" y="10.855"/><use xlink:href="#6" y="13.026"/><use xlink:href="#7" y="15.197"/><use xlink:href="#8" y="17.368"/><use xlink:href="#9" y="19.539"/><use xlink:href="#10" y="21.71"/><use xlink:href="#11" y="23.881"/><use xlink:href="#12" y="26.052"/><use xlink:href="#13" y="28.223"/><use xlink:href="#14" y="30.394"/><use xlink:href="#15" y="32.565"/><use xlink:href="#16" y="34.736"/><use xlink:href="#17" y="36.907"/><use xlink:href="#18" y="39.078"/><use xlink:href="#19" y="41.249"/></svg><svg x="1520"><use xlink:href="#a"/><use xlink:href="#b" x="74.996" y="45.566"/><use xlink:href="#1"/><use xlink:href="#2" y="2.171"/><use xlink:href="#3" y="6.513"/><use xlink:href="#4" y="8.684"/><use xlink:href="#5" y="10.855"/><use xlink:href="#6" y="13.026"/><use xlink:href="#7" y="15.197"/><use xlink:href="#8" y="17.368"/><use xlink:href="#9" y="19.539"/><use xlink:href="#10" y="21.71"/><use xlink:href="#11" y="23.881"/><use xlink:href="#12" y="26.052"/><use xlink:href="#13" y="28.223"/><use xlink:href="#14" y="30.394"/><use xlink:href="#15" y="32.565"/><use xlink:href="#16" y="34.736"/><use xlink:href="#17" y="36.907"/><use xlink:href="#18" y="39.078"/><use xlink:href="#19" y="41.249"/><text y="47.261" class="g">test</text><text x="5.01" y="47.261" class="g">result:</text><text x="13.026" y="47.261" class="h">ok</text><text x="15.03" y="47.261" class="g">.</text><text x="17.034" y="47.261" class="g">16</text><text x="20.04" y="47.261" class="g">passed;</text><text x="28.056" y="47.261" class="g">0</text><text x="30.06" y="47.261" class="g">failed;</text><text x="38.076" y="47.261" class="g">0</text><text x="40.08" y="47.261" class="g">ignored;</text><text x="49.098" y="47.261" class="g">0</text><text x="51.102" y="47.261" class="g">measured;</text><text x="61.122" y="47.261" class="g">0</text><text x="63.126" y="47.261" class="g">filtered</text><text x="72.144" y="47.261" class="g">out</text></svg><svg x="1600"><use xlink:href="#a"/><use xlink:href="#b" x="-.004" y="49.908"/><use xlink:href="#2"/><use xlink:href="#3" y="4.342"/><use xlink:href="#4" y="6.513"/><use xlink:href="#5" y="8.684"/><use xlink:href="#6" y="10.855"/><use xlink:href="#7" y="13.026"/><use xlink:href="#8" y="15.197"/><use xlink:href="#9" y="17.368"/><use xlink:href="#10" y="19.539"/><use xlink:href="#11" y="21.71"/><use xlink:href="#12" y="23.881"/><use xlink:href="#13" y="26.052"/><use xlink:href="#14" y="28.223"/><use xlink:href="#15" y="30.394"/><use xlink:href="#16" y="32.565"/><use xlink:href="#17" y="34.736"/><use xlink:href="#18" y="36.907"/><use xlink:href="#19" y="39.078"/><use xlink:href="#20" y="43.42"/><use xlink:href="#21" y="45.591"/></svg><svg x="1680"><use xlink:href="#a"/><use xlink:href="#b" x="-.004" y="49.908"/><use xlink:href="#3" y="2.171"/><use xlink:href="#4" y="4.342"/><use xlink:href="#5" y="6.513"/><use xlink:href="#6" y="8.684"/><use xlink:href="#7" y="10.855"/><use xlink:href="#8" y="13.026"/><use xlink:href="#9" y="15.197"/><use xlink:href="#10" y="17.368"/><use xlink:href="#11" y="19.539"/><use xlink:href="#12" y="21.71"/><use xlink:href="#13" y="23.881"/><use xlink:href="#14" y="26.052"/><use xlink:href="#15" y="28.223"/><use xlink:href="#16" y="30.394"/><use xlink:href="#17" y="32.565"/><use xlink:href="#18" y="34.736"/><use xlink:href="#19" y="36.907"/><use xlink:href="#20" y="41.249"/><use xlink:href="#21" y="43.42"/><use xlink:href="#22" y="47.762"/></svg><svg x="1760"><use xlink:href="#a"/><use xlink:href="#b" x="-.004" y="49.908"/><use xlink:href="#4"/><use xlink:href="#5" y="2.171"/><use xlink:href="#6" y="4.342"/><use xlink:href="#7" y="6.513"/><use xlink:href="#8" y="8.684"/><use xlink:href="#9" y="10.855"/><use xlink:href="#10" y="13.026"/><use xlink:href="#11" y="15.197"/><use xlink:href="#12" y="17.368"/><use xlink:href="#13" y="19.539"/><use xlink:href="#14" y="21.71"/><use xlink:href="#15" y="23.881"/><use xlink:href="#16" y="26.052"/><use xlink:href="#17" y="28.223"/><use xlink:href="#18" y="30.394"/><use xlink:href="#19" y="32.565"/><use xlink:href="#20" y="36.907"/><use xlink:href="#21" y="39.078"/><use xlink:href="#22" y="43.42"/><use xlink:href="#23" y="47.762"/></svg><svg x="1840"><use xlink:href="#a"/><use xlink:href="#b" x="-.004" y="49.908"/><use xlink:href="#5"/><use xlink:href="#6" y="2.171"/><use xlink:href="#7" y="4.342"/><use xlink:href="#8" y="6.513"/><use xlink:href="#9" y="8.684"/><use xlink:href="#10" y="10.855"/><use xlink:href="#11" y="13.026"/><use xlink:href="#12" y="15.197"/><use xlink:href="#13" y="17.368"/><use xlink:href="#14" y="19.539"/><use xlink:href="#15" y="21.71"/><use xlink:href="#16" y="23.881"/><use xlink:href="#17" y="26.052"/><use xlink:href="#18" y="28.223"/><use xlink:href="#19" y="30.394"/><use xlink:href="#20" y="34.736"/><use xlink:href="#21" y="36.907"/><use xlink:href="#22" y="41.249"/><use xlink:href="#23" y="45.591"/><use xlink:href="#24" y="47.762"/></svg><svg x="1920"><use xlink:href="#a"/><use xlink:href="#b" x="-.004" y="49.908"/><use xlink:href="#9"/><use xlink:href="#10" y="2.171"/><use xlink:href="#11" y="4.342"/><use xlink:href="#12" y="6.513"/><use xlink:href="#13" y="8.684"/><use xlink:href="#14" y="10.855"/><use xlink:href="#15" y="13.026"/><use xlink:href="#16" y="15.197"/><use xlink:href="#17" y="17.368"/><use xlink:href="#18" y="19.539"/><use xlink:href="#19" y="21.71"/><use xlink:href="#20" y="26.052"/><use xlink:href="#21" y="28.223"/><use xlink:href="#22" y="32.565"/><use xlink:href="#23" y="36.907"/><use xlink:href="#24" y="39.078"/><use xlink:href="#25" y="43.42"/><use xlink:href="#26" y="45.591"/></svg><svg x="2000"><use xlink:href="#a"/><use xlink:href="#b" x="-.004" y="49.908"/><use xlink:href="#11"/><use xlink:href="#12" y="2.171"/><use xlink:href="#13" y="4.342"/><use xlink:href="#14" y="6.513"/><use xlink:href="#15" y="8.684"/><use xlink:href="#16" y="10.855"/><use xlink:href="#17" y="13.026"/><use xlink:href="#18" y="15.197"/><use xlink:href="#19" y="17.368"/><use xlink:href="#20" y="21.71"/><use xlink:href="#21" y="23.881"/><use xlink:href="#22" y="28.223"/><use xlink:href="#23" y="32.565"/><use xlink:href="#24" y="34.736"/><use xlink:href="#25" y="39.078"/><use xlink:href="#26" y="41.249"/><use xlink:href="#27" y="45.591"/><use xlink:href="#28" y="47.762"/></svg><svg x="2080"><use xlink:href="#a"/><use xlink:href="#b" x="-.004" y="49.908"/><use xlink:href="#13"/><use xlink:href="#14" y="2.171"/><use xlink:href="#15" y="4.342"/><use xlink:href="#16" y="6.513"/><use xlink:href="#17" y="8.684"/><use xlink:href="#18" y="10.855"/><use xlink:href="#19" y="13.026"/><use xlink:href="#20" y="17.368"/><use xlink:href="#21" y="19.539"/><use xlink:href="#22" y="23.881"/><use xlink:href="#23" y="28.223"/><use xlink:href="#24" y="30.394"/><use xlink:href="#25" y="34.736"/><use xlink:href="#26" y="36.907"/><use xlink:href="#27" y="41.249"/><use xlink:href="#28" y="43.42"/><use xlink:href="#23" y="47.762"/></svg><svg x="2160"><use xlink:href="#a"/><use xlink:href="#b" x="-.004" y="49.908"/><use xlink:href="#14"/><use xlink:href="#15" y="2.171"/><use xlink:href="#16" y="4.342"/><use xlink:href="#17" y="6.513"/><use xlink:href="#18" y="8.684"/><use xlink:href="#19" y="10.855"/><use xlink:href="#20" y="15.197"/><use xlink:href="#21" y="17.368"/><use xlink:href="#22" y="21.71"/><use xlink:href="#23" y="26.052"/><use xlink:href="#24" y="28.223"/><use xlink:href="#25" y="32.565"/><use xlink:href="#26" y="34.736"/><use xlink:href="#27" y="39.078"/><use xlink:href="#28" y="41.249"/><use xlink:href="#23" y="45.591"/><use xlink:href="#29" y="47.762"/></svg><svg x="2240"><use xlink:href="#a"/><use xlink:href="#b" x="-.004" y="49.908"/><use xlink:href="#18"/><use xlink:href="#19" y="2.171"/><use xlink:href="#20" y="6.513"/><use xlink:href="#21" y="8.684"/><use xlink:href="#22" y="13.026"/><use xlink:href="#23" y="17.368"/><use xlink:href="#24" y="19.539"/><use xlink:href="#25" y="23.881"/><use xlink:href="#26" y="26.052"/><use xlink:href="#27" y="30.394"/><use xlink:href="#28" y="32.565"/><use xlink:href="#23" y="36.907"/><use xlink:href="#29" y="39.078"/><use xlink:href="#25" y="43.42"/><use xlink:href="#26" y="45.591"/></svg><svg x="2320"><use xlink:href="#a"/><use xlink:href="#b" x="-.004" y="49.908"/><use xlink:href="#19"/><use xlink:href="#20" y="4.342"/><use xlink:href="#21" y="6.513"/><use xlink:href="#22" y="10.855"/><use xlink:href="#23" y="15.197"/><use xlink:href="#24" y="17.368"/><use xlink:href="#25" y="21.71"/><use xlink:href="#26" y="23.881"/><use xlink:href="#27" y="28.223"/><use xlink:href="#28" y="30.394"/><use xlink:href="#23" y="34.736"/><use xlink:href="#29" y="36.907"/><use xlink:href="#25" y="41.249"/><use xlink:href="#26" y="43.42"/><use xlink:href="#30" y="47.762"/></svg><svg x="2400"><use xlink:href="#a"/><use xlink:href="#b" x="-.004" y="49.908"/><use xlink:href="#20"/><use xlink:href="#21" y="2.171"/><use xlink:href="#22" y="6.513"/><use xlink:href="#23" y="10.855"/><use xlink:href="#24" y="13.026"/><use xlink:href="#25" y="17.368"/><use xlink:href="#26" y="19.539"/><use xlink:href="#27" y="23.881"/><use xlink:href="#28" y="26.052"/><use xlink:href="#23" y="30.394"/><use xlink:href="#29" y="32.565"/><use xlink:href="#25" y="36.907"/><use xlink:href="#26" y="39.078"/><use xlink:href="#30" y="43.42"/><use xlink:href="#23" y="47.762"/></svg><svg x="2480"><use xlink:href="#a"/><use xlink:href="#b" x="-.004" y="49.908"/><use xlink:href="#21"/><use xlink:href="#22" y="4.342"/><use xlink:href="#23" y="8.684"/><use xlink:href="#24" y="10.855"/><use xlink:href="#25" y="15.197"/><use xlink:href="#26" y="17.368"/><use xlink:href="#27" y="21.71"/><use xlink:href="#28" y="23.881"/><use xlink:href="#23" y="28.223"/><use xlink:href="#29" y="30.394"/><use xlink:href="#25" y="34.736"/><use xlink:href="#26" y="36.907"/><use xlink:href="#30" y="41.249"/><use xlink:href="#23" y="45.591"/><use xlink:href="#31" y="47.762"/></svg><svg x="2560"><use xlink:href="#a"/><use xlink:href="#b" x="14.996" y="49.908"/><use xlink:href="#22" y="2.171"/><use xlink:href="#23" y="6.513"/><use xlink:href="#24" y="8.684"/><use xlink:href="#25" y="13.026"/><use xlink:href="#26" y="15.197"/><use xlink:href="#27" y="19.539"/><use xlink:href="#28" y="21.71"/><use xlink:href="#23" y="26.052"/><use xlink:href="#29" y="28.223"/><use xlink:href="#25" y="32.565"/><use xlink:href="#26" y="34.736"/><use xlink:href="#30" y="39.078"/><use xlink:href="#23" y="43.42"/><use xlink:href="#31" y="45.591"/><text y="51.603" class="g">test</text><text x="5.01" y="51.603" class="g">result:</text><text x="13.026" y="51.603" class="h">ok</text></svg><svg x="2640"><use xlink:href="#a"/><use xlink:href="#b" x="-.004" y="49.908"/><use xlink:href="#23"/><use xlink:href="#24" y="2.171"/><use xlink:href="#25" y="6.513"/><use xlink:href="#26" y="8.684"/><use xlink:href="#27" y="13.026"/><use xlink:href="#28" y="15.197"/><use xlink:href="#23" y="19.539"/><use xlink:href="#29" y="21.71"/><use xlink:href="#25" y="26.052"/><use xlink:href="#26" y="28.223"/><use xlink:href="#30" y="32.565"/><use xlink:href="#23" y="36.907"/><use xlink:href="#31" y="39.078"/><use xlink:href="#25" y="43.42"/><use xlink:href="#32" y="45.591"/></svg><svg x="2720"><use xlink:href="#a"/><use xlink:href="#b" x="-.004" y="49.908"/><use xlink:href="#24"/><use xlink:href="#25" y="4.342"/><use xlink:href="#26" y="6.513"/><use xlink:href="#27" y="10.855"/><use xlink:href="#28" y="13.026"/><use xlink:href="#23" y="17.368"/><use xlink:href="#29" y="19.539"/><use xlink:href="#25" y="23.881"/><use xlink:href="#26" y="26.052"/><use xlink:href="#30" y="30.394"/><use xlink:href="#23" y="34.736"/><use xlink:href="#31" y="36.907"/><use xlink:href="#25" y="41.249"/><use xlink:href="#32" y="43.42"/><use xlink:href="#33" y="47.762"/></svg><svg x="2800"><use xlink:href="#a"/><use xlink:href="#b" x="-.004" y="49.908"/><use xlink:href="#25"/><use xlink:href="#26" y="2.171"/><use xlink:href="#27" y="6.513"/><use xlink:href="#28" y="8.684"/><use xlink:href="#23" y="13.026"/><use xlink:href="#29" y="15.197"/><use xlink:href="#25" y="19.539"/><use xlink:href="#26" y="21.71"/><use xlink:href="#30" y="26.052"/><use xlink:href="#23" y="30.394"/><use xlink:href="#31" y="32.565"/><use xlink:href="#25" y="36.907"/><use xlink:href="#32" y="39.078"/><use xlink:href="#33" y="43.42"/><use xlink:href="#34" y="47.762"/></svg><svg x="2880"><use xlink:href="#a"/><use xlink:href="#b" x="12.996" y="49.908"/><use xlink:href="#26"/><use xlink:href="#27" y="4.342"/><use xlink:href="#28" y="6.513"/><use xlink:href="#23" y="10.855"/><use xlink:href="#29" y="13.026"/><use xlink:href="#25" y="17.368"/><use xlink:href="#26" y="19.539"/><use xlink:href="#30" y="23.881"/><use xlink:href="#23" y="28.223"/><use xlink:href="#31" y="30.394"/><use xlink:href="#25" y="34.736"/><use xlink:href="#32" y="36.907"/><use xlink:href="#33" y="41.249"/><use xlink:href="#34" y="45.591"/><text y="51.603" class="g">test</text><text x="5.01" y="51.603" class="g">result:</text></svg><svg x="2960"><use xlink:href="#a"/><use xlink:href="#b" x="73.996" y="49.908"/><use xlink:href="#26"/><use xlink:href="#27" y="4.342"/><use xlink:href="#28" y="6.513"/><use xlink:href="#23" y="10.855"/><use xlink:href="#29" y="13.026"/><use xlink:href="#25" y="17.368"/><use xlink:href="#26" y="19.539"/><use xlink:href="#30" y="23.881"/><use xlink:href="#23" y="28.223"/><use xlink:href="#31" y="30.394"/><use xlink:href="#25" y="34.736"/><use xlink:href="#32" y="36.907"/><use xlink:href="#33" y="41.249"/><use xlink:href="#34" y="45.591"/><text y="51.603" class="g">test</text><text x="5.01" y="51.603" class="g">result:</text><text x="13.026" y="51.603" class="h">ok</text><text x="15.03" y="51.603" class="g">.</text><text x="17.034" y="51.603" class="g">0</text><text x="19.038" y="51.603" class="g">passed;</text><text x="27.054" y="51.603" class="g">0</text><text x="29.058" y="51.603" class="g">failed;</text><text x="37.074" y="51.603" class="g">0</text><text x="39.078" y="51.603" class="g">ignored;</text><text x="48.096" y="51.603" class="g">0</text><text x="50.1" y="51.603" class="g">measured;</text><text x="60.12" y="51.603" class="g">0</text><text x="62.124" y="51.603" class="g">filtered</text><text x="71.142" y="51.603" class="g">out</text></svg><svg x="3040"><use xlink:href="#a"/><use xlink:href="#b" x="-.004" y="49.908"/><use xlink:href="#28"/><use xlink:href="#23" y="4.342"/><use xlink:href="#29" y="6.513"/><use xlink:href="#25" y="10.855"/><use xlink:href="#26" y="13.026"/><use xlink:href="#30" y="17.368"/><use xlink:href="#23" y="21.71"/><use xlink:href="#31" y="23.881"/><use xlink:href="#25" y="28.223"/><use xlink:href="#32" y="30.394"/><use xlink:href="#33" y="34.736"/><use xlink:href="#34" y="39.078"/><text y="45.09" class="g">test</text><text x="5.01" y="45.09" class="g">result:</text><text x="13.026" y="45.09" class="h">ok</text><text x="15.03" y="45.09" class="g">.</text><text x="17.034" y="45.09" class="g">0</text><text x="19.038" y="45.09" class="g">passed;</text><text x="27.054" y="45.09" class="g">0</text><text x="29.058" y="45.09" class="g">failed;</text><text x="37.074" y="45.09" class="g">0</text><text x="39.078" y="45.09" class="g">ignored;</text><text x="48.096" y="45.09" class="g">0</text><text x="50.1" y="45.09" class="g">measured;</text><text x="60.12" y="45.09" class="g">0</text><text x="62.124" y="45.09" class="g">filtered</text><text x="71.142" y="45.09" class="g">out;</text><text x="76.152" y="45.09" class="g">fini</text><use xlink:href="#32" y="45.591"/></svg></svg></g></g></svg></svg>